<?xml version="1.0" standalone="no"?>
<!DOCTYPE svg PUBLIC "-//W3C//DTD SVG 20010904//EN"
 "http://www.w3.org/TR/2001/REC-SVG-20010904/DTD/svg10.dtd">
<svg version="1.0" xmlns="http://www.w3.org/2000/svg"
 width="777.000000pt" height="777.000000pt" viewBox="0 0 777.000000 777.000000"
 preserveAspectRatio="xMidYMid meet">
<metadata>
Created by potrace 1.11, written by Peter Selinger 2001-2013
</metadata>
<g transform="translate(0.000000,777.000000) scale(0.100000,-0.100000)"
fill="#000000" stroke="none">
<path d="M2960 7568 c-568 -98 -1052 -514 -1230 -1058 -60 -183 -74 -276 -74
-490 -1 -221 13 -322 69 -493 151 -465 492 -820 965 -1002 l85 -33 3 -841 c1
-463 -1 -841 -6 -841 -4 0 -113 106 -242 236 -129 129 -255 249 -279 266 -130
91 -307 103 -460 31 -62 -30 -280 -234 -331 -311 -96 -145 -95 -360 2 -502 17
-25 320 -335 674 -690 l642 -645 4 -190 c4 -174 6 -196 31 -268 49 -141 122
-246 236 -337 80 -64 137 -93 247 -125 l86 -25 1132 0 1131 0 86 24 c106 29
187 71 273 142 116 95 211 259 236 404 7 46 10 487 8 1510 l-3 1445 -22 47
c-30 66 -105 143 -172 175 -55 28 -59 28 -275 31 -204 3 -224 2 -284 -18 -35
-12 -65 -20 -66 -18 -1 1 -10 29 -20 61 -24 79 -85 151 -166 196 l-65 36 -245
0 c-232 0 -248 -1 -292 -22 -27 -13 -48 -18 -48 -12 0 25 -54 117 -92 155 -22
23 -65 55 -96 70 -57 29 -58 29 -275 32 -212 3 -257 -1 -333 -34 -13 -5 -25
29 -15 44 3 5 49 29 101 53 476 218 804 634 905 1149 28 140 31 381 6 535 -69
441 -316 824 -696 1080 -314 211 -749 300 -1135 233z m490 -163 c543 -83 999
-492 1143 -1026 39 -142 50 -254 44 -429 -6 -170 -33 -303 -96 -465 -116 -301
-374 -583 -669 -731 -77 -38 -88 -41 -93 -26 -9 24 -10 285 -1 297 4 6 39 31
79 57 300 197 493 558 493 923 0 552 -395 1023 -932 1110 -352 57 -695 -46
-952 -286 -355 -331 -454 -840 -253 -1292 94 -210 312 -433 517 -529 l49 -23
1 -152 c0 -173 4 -166 -81 -131 -214 87 -400 224 -553 408 -149 178 -233 348
-293 585 -26 103 -28 124 -27 315 0 190 2 213 27 315 48 193 102 317 207 473
110 165 285 330 455 430 145 86 361 162 510 181 112 14 322 12 425 -4z m-38
-459 c298 -59 555 -261 684 -540 65 -142 79 -212 79 -396 0 -143 -3 -176 -23
-245 -51 -175 -159 -348 -286 -461 -37 -32 -73 -59 -79 -59 -16 0 -22 237 -6
266 6 12 27 42 46 67 48 64 89 148 115 239 32 110 32 276 0 386 -73 255 -253
437 -512 519 -62 19 -97 23 -200 23 -140 0 -218 -18 -340 -80 -282 -144 -447
-480 -386 -785 33 -161 91 -273 204 -387 l72 -74 0 -120 c0 -65 -4 -119 -8
-119 -20 0 -135 83 -201 146 -119 112 -212 267 -262 439 -21 70 -24 101 -24
245 0 143 3 176 23 245 104 356 376 612 733 690 85 18 279 19 371 1z m-54
-381 c252 -60 441 -294 442 -549 0 -57 -19 -176 -29 -176 -3 0 -21 29 -40 65
-55 107 -141 167 -270 187 -36 6 -143 8 -236 6 -165 -4 -173 -5 -235 -34 -129
-61 -199 -165 -209 -314 l-6 -85 -27 45 c-47 78 -68 137 -80 220 -57 391 306
725 690 635z m142 -654 c14 -7 37 -25 53 -39 59 -56 57 -4 57 -1431 l0 -1305
22 -23 c28 -30 83 -31 115 -1 l23 21 0 502 c0 289 4 524 10 554 11 61 36 97
88 128 35 22 47 23 239 23 l201 0 43 -32 c83 -64 79 -35 79 -626 0 -552 1
-569 45 -586 31 -12 73 -6 96 13 l24 19 5 434 c5 469 5 462 62 515 40 38 72
43 269 43 167 0 194 -2 227 -19 20 -10 45 -28 55 -39 44 -48 46 -74 47 -555
l0 -458 25 -24 c33 -34 83 -34 116 1 l24 26 5 346 c3 237 9 353 17 367 18 31
65 73 96 84 16 6 107 11 212 11 195 0 223 -5 268 -48 61 -57 57 47 57 -1515 0
-1283 -2 -1439 -16 -1488 -53 -182 -201 -327 -379 -374 -52 -13 -204 -15
-1170 -15 -726 0 -1126 4 -1155 11 -125 28 -270 135 -334 244 -61 103 -69 142
-75 377 l-6 218 -671 672 c-432 433 -677 686 -688 710 -38 85 -38 187 2 264
11 22 73 91 139 155 129 127 170 149 268 149 116 0 118 -1 491 -371 315 -314
343 -339 375 -339 38 1 60 14 77 47 9 16 12 425 12 1623 0 1746 -4 1636 58
1693 53 51 89 57 287 54 128 -2 187 -6 205 -16z"/>
</g>
</svg>
